<?xml version="1.0" encoding="UTF-8"?>
<svg id="Layer_1" data-name="Layer 1" xmlns="http://www.w3.org/2000/svg" viewBox="0 0 156.21 206.07">
  <g id="logo_with_white_border" data-name="logo with white border">
    <g id="Group_352" data-name="Group 352">
      <path id="Path_252" data-name="Path 252" d="m177.5,32.51c-.18-.33-.45-.61-.77-.8L79.85-25.12c-.64-.37-1.42-.37-2.06,0L-19.11,31.69c-.16.09-.3.21-.43.34-.39.39-.6.92-.6,1.47v113.65c0,.29.05.57.17.84.17.41.47.75.85.97l96.88,56.83c.24.14.5.23.78.26.08.01.17.02.26.02.36,0,.71-.1,1.02-.28l96.9-56.81c.16-.09.3-.2.43-.33.39-.39.61-.93.61-1.48V33.52c0-.35-.08-.7-.26-1.01Zm-49.98,30.47v54.73c0,.71-.36,1.38-.96,1.76-.33.21-.71.32-1.09.32l-93.33-.02c-1.14,0-2.06-.94-2.05-2.08h0v-54.73c0-.71.36-1.38.96-1.76l46.74-27.4c.63-.37,1.42-.37,2.05,0l46.66,27.37c.64.38,1.03,1.06,1.03,1.8h0Z" fill="#fff"/>
      <g id="Group_230" data-name="Group 230">
        <path id="Path_253" data-name="Path 253" d="m58.34,103.17c5.15-.06,10.07-2.15,13.7-5.82.63-.73,1.72-.81,2.45-.18.06.06.13.12.18.18l.48.4c.66.65.67,1.71.02,2.37-.03.03-.07.06-.1.09-4.39,4.41-10.35,6.91-16.57,6.93-10.83,0-20.71-7.73-20.71-20.79,0-11.95,8.29-20.95,19.83-20.95,5.54-.17,10.83,2.25,14.34,6.53,3.27,3.75,5.06,8.57,5.02,13.54.08,1.11-.75,2.07-1.85,2.15-.1,0-.2,0-.3,0h-32.5c.56,9.8,7.81,15.53,16.01,15.53Zm-16.01-19.52h30.19c-.28-3.15-1.44-6.16-3.35-8.68-2.47-3.51-6.45-5.58-11.55-5.58-8.44,0-14.42,5.73-15.29,14.26h0Z" fill="#fff"/>
        <path id="Path_254" data-name="Path 254" d="m81.68,104.52v-.64c.16-.91.61-1.75,1.27-2.39l23.98-31.79h-22.38c-.82.1-1.56-.47-1.67-1.29-.01-.1-.02-.2,0-.3v-.48c-.03-.81.6-1.49,1.41-1.53.09,0,.17,0,.26.01h26.21c.88-.05,1.62.62,1.67,1.5,0,.06,0,.12,0,.17v.56c-.16.92-.58,1.77-1.2,2.47l-24.06,31.7h25.02c.87-.06,1.61.6,1.67,1.46,0,.04,0,.09,0,.13v.48c.04.84-.61,1.56-1.45,1.6-.07,0-.15,0-.22,0h-28.84c-.9.02-1.65-.69-1.67-1.59,0-.03,0-.05,0-.08Z" fill="#fff"/>
      </g>
    </g>
    <g id="Group_231" data-name="Group 231">
      <path id="Path_252-2" data-name="Path 252-2" d="m156,45.06c-.14-.26-.35-.47-.61-.62L78.93.28c-.5-.29-1.12-.29-1.62,0L.83,44.42c-.13.07-.24.16-.34.27-.31.3-.48.72-.48,1.15v88.31c0,.58.31,1.11.81,1.41l76.46,44.16c.19.11.4.18.61.2.07,0,.13.01.2.01.28,0,.56-.07.81-.22l76.48-44.14c.12-.07.24-.16.34-.26.31-.3.48-.72.48-1.15V45.84c0-.27-.07-.54-.2-.78Zm-39.45,23.67v42.53c0,.56-.29,1.08-.76,1.37-.26.16-.56.25-.86.25H41.27c-.89-.01-1.62-.74-1.62-1.63v-42.53c0-.56.29-1.08.76-1.37l36.89-21.29c.5-.29,1.12-.29,1.62,0l36.83,21.27c.5.29.81.82.81,1.4Z" fill="#86b6b9"/>
      <g id="Group_230-2" data-name="Group 230-2">
        <path id="Path_253-2" data-name="Path 253-2" d="m65.43,98.8c3.67-.05,7.17-1.53,9.75-4.14.45-.52,1.23-.57,1.74-.13.05.04.09.08.13.13l.34.28c.47.47.47,1.23,0,1.7-.02.02-.04.04-.07.06-3.12,3.14-7.36,4.91-11.79,4.93-7.71,0-14.74-5.5-14.74-14.8,0-8.5,5.9-14.91,14.12-14.91,3.94-.12,7.71,1.6,10.21,4.65,2.33,2.67,3.6,6.1,3.57,9.64.06.79-.53,1.47-1.32,1.53-.07,0-.14,0-.22,0h-23.13c.4,6.98,5.56,11.06,11.4,11.06Zm-11.4-13.89h21.49c-.2-2.24-1.02-4.38-2.38-6.18-1.9-2.62-4.99-4.11-8.22-3.97-6.01,0-10.26,4.08-10.88,10.15h0Z" fill="#86b6b9"/>
        <path id="Path_254-2" data-name="Path 254-2" d="m82.04,99.76v-.45c.12-.65.43-1.24.91-1.7l17.07-22.62h-15.93c-.58.07-1.11-.34-1.19-.92,0-.07-.01-.14,0-.22v-.34c-.02-.58.43-1.06,1-1.09.06,0,.13,0,.19,0h18.65c.62-.03,1.16.44,1.19,1.07,0,.04,0,.08,0,.12v.4c-.11.65-.41,1.26-.85,1.76l-17.12,22.56h17.8c.62-.05,1.15.42,1.2,1.03,0,.03,0,.07,0,.1v.34c.03.6-.43,1.11-1.03,1.14-.05,0-.11,0-.16,0h-20.53c-.64.02-1.18-.49-1.19-1.13,0-.02,0-.04,0-.06Z" fill="#86b6b9"/>
      </g>
    </g>
  </g>
</svg>